<?xml version="1.0" encoding="utf-8"?>
<!-- Generator: Adobe Illustrator 16.0.0, SVG Export Plug-In . SVG Version: 6.00 Build 0)  -->
<!DOCTYPE svg PUBLIC "-//W3C//DTD SVG 1.1//EN" "http://www.w3.org/Graphics/SVG/1.1/DTD/svg11.dtd">
<svg version="1.1" id="Layer_1" xmlns="http://www.w3.org/2000/svg" xmlns:xlink="http://www.w3.org/1999/xlink" x="0px" y="0px"
	 width="605.001px" height="607.234px" viewBox="-277.379 -264.187 605.001 607.234"
	 enable-background="new -277.379 -264.187 605.001 607.234" xml:space="preserve">
<g id="Layer_5">
	
		<radialGradient id="SVGID_1_" cx="-54.6743" cy="374.5562" r="170.621" gradientTransform="matrix(1.6589 0 0 1.8276 118.6188 -509.4436)" gradientUnits="userSpaceOnUse">
		<stop  offset="0" style="stop-color:#FFFFFF"/>
		<stop  offset="0.715" style="stop-color:#F17F00"/>
	</radialGradient>
	<path fill="url(#SVGID_1_)" stroke="#781100" stroke-width="5" stroke-miterlimit="10" d="M-51.845-33.739
		c-15.455-61.226,23.866-85.899,23.866-85.899s-19.758,46.604,9.781,60.312C11.146-45.619-1.57-102.458-1.766-117.811
		c-0.392-19.738,7.629-53.915,40.103-65.795c32.473-11.879,1.564-75.847,1.564-75.847s22.693,9.139,29.539,31.07
		c6.847,21.932,5.281,42.95-9.193,54.83c-14.477,11.88-18.193,50.808,1.173,64.515c9.585,6.945,21.323-2.375,26.019-17.728
		c4.694-15.353,2.543-36.736,2.543-36.736s39.124,22.846,6.455,75.847c-32.67,53.002-9.194,68.72-9.194,68.72
		s36.582,36.552,57.513,5.482c20.933-31.07,9.586-62.688,9.586-62.688s26.996,19.555,32.279,31.618
		c3.912,8.772,9.975,21.201,1.173,47.519c-9.978,29.242-19.366,23.76-26.604,47.518c-7.238,23.76,6.65,36.554,6.65,36.554
		c59.275,44.411,60.839-61.226,60.839-61.226s15.063,14.621,24.257,42.949c9.195,28.329-7.824,48.432-13.106,77.309
		c-9.978,53.55,11.737,120.258,45.775,101.068c34.041-19.189,14.477-84.07,14.477-84.07s25.042,20.104,25.042,73.104
		c0,53.002-15.26,69.085-36.387,74.934c-220.467,60.678-485.732,9.139-495.709,6.214c-21.323-6.214-54.383-4.386-64.946-58.301
		c-10.564-53.916,10.563-52.089,10.563-52.089s-6.064,54.83,30.321,46.605c36.386-8.225,9.781-35.639,9.781-35.639
		c-55.361-81.512,12.129-121.538,12.129-121.538s-24.453,49.712,12.52,85.899c10.759,10.6,16.628,11.696,22.496,11.88
		c11.738,0.365,17.411-10.966,18.193-12.794c3.13-6.762,10.368-27.049-10.172-44.229c-32.474-27.232-9.39-87.361-9.39-87.361
		s2.348,23.394,9.194,39.294c3.521,8.224,9.585,13.341,14.28,14.803c12.52,3.838,26.997-13.524,21.714-44.594
		C-147.7-42.695-95.86-38.491-95.86-38.491s-28.756,16.266-21.91,50.26c2.543,12.793,8.608,23.577,30.126,29.791
		c21.519,6.031,34.43-6.945,34.43-6.945s15.454-11.331,12.911-31.07C-43.042-16.194-51.845-33.739-51.845-33.739z"/>
</g>
<g id="Layer_4">
	<polygon fill="none" stroke="#781100" stroke-width="5" stroke-miterlimit="10" points="25.121,261.415 167.059,261.415 
		25.121,0.748 -116.815,261.415 	"/>
</g>
</svg>
